<svg width="760" height="672" viewBox="0 0 760 672" fill="none" xmlns="http://www.w3.org/2000/svg">
<rect width="760" height="672" rx="48" fill="#141826"/>
<circle cx="510" cy="170" r="140" fill="#FF6A3D" fill-opacity="0.16"/>
<circle cx="220" cy="160" r="98" fill="#48D1CC" fill-opacity="0.16"/>
<path d="M148 450C148 402.298 187.298 363 235 363H515C562.702 363 602 402.298 602 450V564C602 611.702 562.702 651 515 651H235C187.298 651 148 611.702 148 564V450Z" fill="#1F2735"/>
<path d="M240 394C268.091 394 290 416.909 290 445C290 473.091 268.091 496 240 496C211.909 496 190 473.091 190 445C190 416.909 211.909 394 240 394Z" fill="#FFBE4A"/>
<path d="M350 380C378.091 380 400 402.909 400 431C400 459.091 378.091 482 350 482C321.909 482 300 459.091 300 431C300 402.909 321.909 380 350 380Z" fill="#FF6A3D"/>
<path d="M450 416C478.091 416 500 438.909 500 467C500 495.091 478.091 518 450 518C421.909 518 400 495.091 400 467C400 438.909 421.909 416 450 416Z" fill="#FFFFFF" fill-opacity="0.9"/>
<path d="M193 460C200 442 215 430 233 430H515C533 430 548 442 555 460" stroke="#FF6A3D" stroke-width="18" stroke-linecap="round"/>
<path d="M405 268C405 307.882 372.882 340 333 340C293.118 340 261 307.882 261 268C261 228.118 293.118 196 333 196C372.882 196 405 228.118 405 268Z" fill="#FFBE4A"/>
<path d="M522 234C522 278.137 486.137 314 442 314C397.863 314 362 278.137 362 234C362 189.863 397.863 154 442 154C486.137 154 522 189.863 522 234Z" fill="#48D1CC"/>
</svg>
